<svg width="498" height="498" viewBox="0 0 498 498" fill="none" xmlns="http://www.w3.org/2000/svg">
<path d="M249 82.7421C252.772 82.7421 256.39 81.2437 259.057 78.5766C261.724 75.9094 263.222 72.2919 263.222 68.5199V20.1644C263.222 16.3924 261.724 12.7749 259.057 10.1077C256.39 7.44055 252.772 5.94214 249 5.94214C245.228 5.94214 241.611 7.44055 238.943 10.1077C236.276 12.7749 234.778 16.3924 234.778 20.1644V68.5199C234.778 72.2919 236.276 75.9094 238.943 78.5766C241.611 81.2437 245.228 82.7421 249 82.7421Z" fill="black" stroke="black" stroke-width="11"/>
<path d="M249 415.258C245.228 415.258 241.611 416.756 238.943 419.423C236.276 422.091 234.778 425.708 234.778 429.48V477.836C234.778 481.608 236.276 485.225 238.943 487.892C241.611 490.559 245.228 492.058 249 492.058C252.772 492.058 256.39 490.559 259.057 487.892C261.724 485.225 263.222 481.608 263.222 477.836V429.48C263.222 425.708 261.724 422.091 259.057 419.423C256.39 416.756 252.772 415.258 249 415.258V415.258Z" fill="black" stroke="black" stroke-width="11"/>
<path d="M111.329 131.524C113.973 133.928 117.426 135.248 121 135.222C122.872 135.233 124.727 134.874 126.46 134.166C128.193 133.459 129.769 132.416 131.098 131.098C132.431 129.776 133.489 128.203 134.211 126.469C134.933 124.736 135.305 122.877 135.305 121C135.305 119.122 134.933 117.263 134.211 115.53C133.489 113.797 132.431 112.224 131.098 110.902L97.2488 77.1955C94.5281 74.8655 91.0283 73.648 87.4489 73.7862C83.8695 73.9245 80.4741 75.4083 77.9412 77.9412C75.4083 80.4741 73.9245 83.8695 73.7862 87.4489C73.648 91.0283 74.8655 94.5281 77.1955 97.2488L111.329 131.524Z" fill="black" stroke="black" stroke-width="11"/>
<path d="M386.671 366.476C385.345 365.15 383.771 364.098 382.038 363.38C380.306 362.662 378.449 362.293 376.573 362.293C374.698 362.293 372.841 362.662 371.109 363.38C369.376 364.098 367.802 365.15 366.476 366.476C365.15 367.802 364.098 369.376 363.38 371.109C362.662 372.841 362.293 374.698 362.293 376.573C362.293 378.449 362.662 380.306 363.38 382.038C364.098 383.771 365.15 385.345 366.476 386.671L400.751 420.805C402.068 422.148 403.639 423.217 405.372 423.95C407.106 424.682 408.967 425.063 410.849 425.071C414.6 425.018 418.179 423.484 420.805 420.805C423.453 418.14 424.94 414.535 424.94 410.778C424.94 407.021 423.453 403.416 420.805 400.751L386.671 366.476Z" fill="black" stroke="black" stroke-width="11"/>
<path d="M82.7421 249C82.7421 245.228 81.2437 241.611 78.5766 238.943C75.9094 236.276 72.2919 234.778 68.5199 234.778H20.1644C16.3924 234.778 12.7749 236.276 10.1077 238.943C7.44055 241.611 5.94214 245.228 5.94214 249C5.94214 252.772 7.44055 256.39 10.1077 259.057C12.7749 261.724 16.3924 263.222 20.1644 263.222H68.5199C72.2919 263.222 75.9094 261.724 78.5766 259.057C81.2437 256.39 82.7421 252.772 82.7421 249Z" fill="black" stroke="black" stroke-width="11"/>
<path d="M477.836 234.778H429.48C425.708 234.778 422.091 236.276 419.423 238.943C416.756 241.611 415.258 245.228 415.258 249C415.258 252.772 416.756 256.39 419.423 259.057C422.091 261.724 425.708 263.222 429.48 263.222H477.836C481.608 263.222 485.225 261.724 487.892 259.057C490.559 256.39 492.058 252.772 492.058 249C492.058 245.228 490.559 241.611 487.892 238.943C485.225 236.276 481.608 234.778 477.836 234.778Z" fill="black" stroke="black" stroke-width="11"/>
<path d="M111.329 366.476L77.1956 400.751C75.1985 402.732 73.8335 405.26 73.2734 408.017C72.7132 410.773 72.983 413.634 74.0486 416.237C75.1143 418.84 76.9278 421.069 79.26 422.641C81.5922 424.214 84.3384 425.059 87.1511 425.071C89.0328 425.063 90.8943 424.682 92.6276 423.95C94.3609 423.217 95.9317 422.148 97.2489 420.805L131.524 386.671C134.203 383.993 135.707 380.361 135.707 376.573C135.707 372.786 134.203 369.154 131.524 366.476C128.846 363.798 125.214 362.293 121.427 362.293C117.639 362.293 114.007 363.798 111.329 366.476V366.476Z" fill="black" stroke="black" stroke-width="11"/>
<path d="M377 135.222C378.872 135.233 380.727 134.874 382.46 134.166C384.193 133.459 385.769 132.416 387.098 131.098L421.231 96.8221C423.88 94.1574 425.367 90.5527 425.367 86.7954C425.367 83.0381 423.88 79.4335 421.231 76.7688C418.566 74.1199 414.962 72.6331 411.204 72.6331C407.447 72.6331 403.842 74.1199 401.178 76.7688L366.902 110.902C365.569 112.224 364.511 113.797 363.789 115.53C363.067 117.263 362.695 119.122 362.695 121C362.695 122.877 363.067 124.736 363.789 126.469C364.511 128.203 365.569 129.776 366.902 131.098C368.231 132.416 369.807 133.459 371.54 134.166C373.273 134.874 375.128 135.233 377 135.222Z" fill="black" stroke="black" stroke-width="11"/>
<path d="M250.849 103.222C222.278 102.856 194.244 110.993 170.31 126.599C146.375 142.205 127.622 164.575 116.434 190.867C105.245 217.158 102.127 246.182 107.475 274.25C112.824 302.318 126.397 328.161 146.47 348.495C166.544 368.829 192.21 382.735 220.206 388.446C248.202 394.157 277.264 391.413 303.698 380.566C330.131 369.718 352.742 351.255 368.656 327.524C384.57 303.793 393.069 275.866 393.071 247.293C393.26 209.345 378.396 172.87 351.736 145.864C325.076 118.857 288.796 103.523 250.849 103.222V103.222ZM250.849 362.778C227.899 363.145 205.359 356.673 186.099 344.187C166.84 331.7 151.732 313.764 142.701 292.663C133.669 271.562 131.122 248.25 135.384 225.696C139.646 203.142 150.524 182.367 166.633 166.016C182.742 149.666 203.353 138.48 225.841 133.882C248.329 129.285 271.676 131.485 292.909 140.201C314.143 148.918 332.302 163.756 345.073 182.828C357.845 201.899 364.652 224.34 364.627 247.293C364.778 277.673 352.894 306.877 331.573 328.518C310.251 350.16 281.227 362.477 250.849 362.778V362.778Z" fill="black" stroke="black" stroke-width="11"/>
</svg>
