<svg width="512" height="510" viewBox="0 0 512 510" fill="none" xmlns="http://www.w3.org/2000/svg">
<path d="M261.952 33.16C258.132 31.629 253.868 31.629 250.048 33.16L59.072 109.544L256 188.296L452.928 109.544L261.952 33.16ZM480 133.192L272 216.392V469.896L480 386.696V133.224V133.192ZM240 469.928V216.36L32 133.192V386.728L240 469.928V469.928ZM238.176 3.43202C249.618 -1.14401 262.382 -1.14401 273.824 3.43202L501.952 94.696C504.918 95.8847 507.46 97.9342 509.251 100.58C511.042 103.227 511.999 106.349 512 109.544V386.728C511.996 393.122 510.076 399.369 506.489 404.662C502.901 409.955 497.81 414.052 491.872 416.424L261.952 508.392C258.132 509.923 253.868 509.923 250.048 508.392L20.16 416.424C14.216 414.057 9.11816 409.962 5.52455 404.669C1.93093 399.375 0.00660254 393.126 0 386.728L0 109.544C0.000743678 106.349 0.9582 103.227 2.74902 100.58C4.53985 97.9342 7.08201 95.8847 10.048 94.696L238.176 3.43202Z" fill="#111111"/>
</svg>
