<svg width="512" height="497" viewBox="0 0 512 497" fill="none" xmlns="http://www.w3.org/2000/svg">
<path d="M104.564 287.545C90.6984 287.545 77.4002 293.053 67.5954 302.858C57.7905 312.663 52.2822 325.961 52.2822 339.827V392.11C52.2822 405.976 57.7905 419.274 67.5954 429.079C77.4002 438.884 90.6984 444.392 104.564 444.392H261.411C275.277 444.392 288.576 438.884 298.38 429.079C308.185 419.274 313.693 405.976 313.693 392.11V339.827C313.693 325.961 308.185 312.663 298.38 302.858C288.576 293.053 275.277 287.545 261.411 287.545H104.564ZM358.081 299.91L407.436 250.582C417.238 240.776 430.534 235.266 444.399 235.263H459.718C473.584 235.263 486.882 240.771 496.687 250.576C506.492 260.381 512 273.679 512 287.545V444.392C512 458.258 506.492 471.556 496.687 481.361C486.882 491.166 473.584 496.674 459.718 496.674H444.399C430.534 496.671 417.238 491.161 407.436 481.355L358.081 432.027C350.175 451.16 336.768 467.517 319.559 479.025C302.351 490.533 282.113 496.675 261.411 496.674H104.564C76.8323 496.674 50.2359 485.657 30.6262 466.048C11.0166 446.438 0 419.842 0 392.11V339.827C0 312.095 11.0166 285.499 30.6262 265.889C50.2359 246.279 76.8323 235.263 104.564 235.263H261.411C282.113 235.261 302.351 241.404 319.559 252.912C336.768 264.42 350.175 280.777 358.081 299.91V299.91ZM444.399 444.392H459.718V287.545H444.399L365.976 365.968L444.399 444.392ZM242.041 62.1825C258.774 44.8079 280.445 32.9978 304.116 28.3525C327.787 23.7072 352.313 26.4513 374.373 36.2129C396.432 45.9746 414.956 62.2818 427.437 82.9248C439.917 103.568 445.749 127.549 444.143 151.617C442.537 175.686 433.571 198.68 418.458 217.482C403.346 236.284 382.819 249.985 359.659 256.729C336.498 263.474 311.824 262.935 288.981 255.186C266.137 247.437 246.227 232.853 231.95 213.409C214.415 234.868 190.514 250.199 163.697 257.187C136.88 264.175 108.536 262.459 82.7586 252.287C56.9808 242.115 35.1032 224.012 20.2854 200.594C5.46752 177.176 -1.52373 149.655 0.321249 122.004C2.16623 94.3529 12.752 68.0041 30.5497 46.7623C48.3475 25.5205 72.4361 10.4853 99.3368 3.82779C126.238 -2.82968 154.558 -0.76477 180.209 9.72431C205.859 20.2134 227.512 38.5838 242.041 62.1825V62.1825ZM130.706 418.251C123.773 418.251 117.123 415.497 112.221 410.594C107.319 405.692 104.564 399.043 104.564 392.11C104.564 385.177 107.319 378.527 112.221 373.625C117.123 368.723 123.773 365.968 130.706 365.968C137.639 365.968 144.288 368.723 149.19 373.625C154.093 378.527 156.847 385.177 156.847 392.11C156.847 399.043 154.093 405.692 149.19 410.594C144.288 415.497 137.639 418.251 130.706 418.251ZM130.706 209.122C151.505 209.122 171.452 200.859 186.159 186.152C200.867 171.445 209.129 151.498 209.129 130.698C209.129 109.899 200.867 89.9519 186.159 75.2447C171.452 60.5374 151.505 52.275 130.706 52.275C109.906 52.275 89.9591 60.5374 75.2519 75.2447C60.5447 89.9519 52.2822 109.899 52.2822 130.698C52.2822 151.498 60.5447 171.445 75.2519 186.152C89.9591 200.859 109.906 209.122 130.706 209.122V209.122ZM326.764 209.122C344.097 209.122 360.719 202.236 372.975 189.98C385.231 177.724 392.117 161.102 392.117 143.769C392.117 126.436 385.231 109.814 372.975 97.5575C360.719 85.3015 344.097 78.4161 326.764 78.4161C309.431 78.4161 292.809 85.3015 280.553 97.5575C268.297 109.814 261.411 126.436 261.411 143.769C261.411 161.102 268.297 177.724 280.553 189.98C292.809 202.236 309.431 209.122 326.764 209.122V209.122Z" fill="#111111"/>
</svg>
