<svg width="536" height="536" viewBox="0 0 536 536" fill="none" xmlns="http://www.w3.org/2000/svg">
<path d="M268 12C124.565 12 12 51.5852 12 102.074V433.926C12 484.415 124.565 524 268 524C411.435 524 524 484.415 524 433.926V102.074C524 51.5852 411.435 12 268 12ZM268 30.963C390.353 30.963 493.882 63.437 493.882 102.074C493.882 140.711 390.353 173.185 268 173.185C145.647 173.185 42.1176 140.711 42.1176 102.074C42.1176 63.437 145.647 30.963 268 30.963ZM493.882 433.926C493.882 472.563 390.353 505.037 268 505.037C145.647 505.037 42.1176 472.563 42.1176 433.926V145.215C85.0353 173.422 168.988 192.148 268 192.148C367.012 192.148 450.965 173.422 493.882 145.215V433.926Z" fill="#111111" stroke="#111111" stroke-width="22.5"/>
</svg>
