<svg width="530" height="424" viewBox="0 0 530 424" fill="none" xmlns="http://www.w3.org/2000/svg">
<path d="M393.076 277.875V266.625H386.095L382.995 272.881L393.076 277.875ZM147.322 411.835L146.674 423.066L146.682 423.067L146.691 423.067L147.322 411.835ZM147.322 12.4547L146.683 1.22279L146.674 1.22336L147.322 12.4547ZM391.826 143.857L381.802 148.964L384.932 155.107H391.826V143.857ZM456.618 277.931L456.562 289.181L456.59 289.181H456.618V277.931ZM153.289 400.866L153.722 389.624L153.506 389.616H153.289V400.866ZM383.926 270.998L394.052 275.9L395.176 273.578V270.998H383.926ZM383.926 153.292H395.176V150.713L394.053 148.392L383.926 153.292ZM153.232 23.4239L152.8 12.1822L141.982 12.5982V23.4239H153.232ZM153.232 400.866H141.982V412.116H153.232V400.866ZM445.308 277.875L445.364 266.625L445.336 266.625H445.308V277.875ZM506.69 266.621V277.871H517.94V266.621H506.69ZM506.69 155.054H517.94V143.804H506.69V155.054ZM395.179 155.054V143.804H383.929V155.054H395.179ZM395.179 266.621H383.929V277.871H395.179V266.621ZM339.246 161.699C339.809 167.887 345.281 172.447 351.469 171.884C357.656 171.322 362.216 165.85 361.654 159.662L339.246 161.699ZM296.229 90.8871L289.031 99.5326L289.031 99.5327L296.229 90.8871ZM175.744 41.6038C169.556 42.1663 164.996 47.6384 165.558 53.8261C166.121 60.0138 171.593 64.5739 177.781 64.0114L175.744 41.6038ZM402.454 266.625H393.076V289.125H402.454V266.625ZM382.995 272.881C342.768 354.092 263.023 401.04 162.042 401.04V423.54C270.555 423.54 358.701 372.617 403.157 282.868L382.995 272.881ZM162.042 401.04C157.587 401.04 152.86 400.878 147.953 400.603L146.691 423.067C151.9 423.36 157.062 423.54 162.042 423.54V401.04ZM147.97 400.604C150.969 400.777 153.286 403.262 153.286 406.208H130.786C130.786 415.178 137.763 422.552 146.674 423.066L147.97 400.604ZM153.286 406.208V18.0814H130.786V406.208H153.286ZM153.286 18.0814C153.286 21.0117 151.041 23.5088 147.97 23.686L146.674 1.22336C137.691 1.74157 130.786 9.24017 130.786 18.0814H153.286ZM147.96 23.6866C152.803 23.4114 157.529 23.25 162.042 23.25V0.75C157.007 0.75 151.843 0.929616 146.683 1.2228L147.96 23.6866ZM162.042 23.25C262.048 23.25 341.205 69.2811 381.802 148.964L401.85 138.75C356.968 50.6565 269.484 0.75 162.042 0.75V23.25ZM391.826 155.107H512.373V132.607H391.826V155.107ZM512.373 155.107C509.286 155.107 506.75 152.571 506.75 149.484H529.25C529.25 140.145 521.712 132.607 512.373 132.607V155.107ZM506.75 149.484V272.305H529.25V149.484H506.75ZM506.75 272.305C506.75 269.217 509.286 266.681 512.373 266.681V289.181C521.712 289.181 529.25 281.644 529.25 272.305H506.75ZM512.373 266.681H456.618V289.181H512.373V266.681ZM152.857 412.107C155.954 412.226 159.053 412.286 162.042 412.286V389.786C159.347 389.786 156.536 389.732 153.722 389.624L152.857 412.107ZM162.042 412.286C266.868 412.286 351.936 362.883 394.052 275.9L373.8 266.095C335.892 344.389 259.321 389.786 162.042 389.786V412.286ZM395.176 270.998V153.292H372.676V270.998H395.176ZM394.053 148.392C351.936 61.3457 266.863 12.0033 161.985 12.0033V34.5033C259.326 34.5033 335.893 79.8483 373.799 158.192L394.053 148.392ZM161.985 12.0033C158.996 12.0033 155.897 12.0631 152.8 12.1822L153.665 34.6655C156.479 34.5573 159.29 34.5033 161.985 34.5033V12.0033ZM141.982 23.4239V400.866H164.482V23.4239H141.982ZM153.232 412.116H153.289V389.616H153.232V412.116ZM445.308 266.625H413.708V289.125H445.308V266.625ZM450.935 277.871H506.69V255.371H450.935V277.871ZM517.94 266.621V155.054H495.44V266.621H517.94ZM506.69 143.804H395.179V166.304H506.69V143.804ZM383.929 155.054V266.621H406.429V155.054H383.929ZM395.179 277.871H450.935V255.371H395.179V277.871ZM361.654 159.662C361.663 159.759 361.645 159.561 361.632 159.43C361.616 159.269 361.595 159.075 361.566 158.851C361.509 158.404 361.427 157.856 361.305 157.211C361.063 155.92 360.671 154.261 360.036 152.248C358.764 148.219 356.533 142.823 352.625 136.174C344.817 122.892 330.335 104.645 303.428 82.2415L289.031 99.5327C314.412 120.665 327.012 137.002 333.228 147.576C336.332 152.856 337.849 156.706 338.579 159.02C338.944 160.178 339.117 160.964 339.192 161.364C339.23 161.565 339.244 161.675 339.246 161.693C339.248 161.702 339.246 161.693 339.244 161.668C339.243 161.655 339.241 161.643 339.241 161.634C339.24 161.631 339.24 161.629 339.241 161.635C339.241 161.636 339.242 161.645 339.242 161.653C339.243 161.66 339.244 161.678 339.246 161.699L361.654 159.662ZM303.428 82.2416C274.652 58.2823 242.907 48.1529 218.505 43.9845C206.28 41.8963 195.794 41.2847 188.271 41.2022C184.506 41.1608 181.47 41.2519 179.315 41.3591C178.237 41.4128 177.38 41.4705 176.761 41.5178C176.134 41.5656 175.743 41.6039 175.744 41.6038L177.781 64.0114C177.917 63.999 239.056 57.9217 289.031 99.5326L303.428 82.2416ZM402.454 289.125H413.708V266.625H402.454V289.125ZM445.251 289.124L456.562 289.181L456.675 266.682L445.364 266.625L445.251 289.124Z" fill="#111111"/>
<path d="M6 240.603L117.018 182.905M6 355.999L117.018 298.301M6 125.207L117.018 67.5088" stroke="black" stroke-width="25"/>
</svg>
