<svg width="536" height="536" viewBox="0 0 536 536" fill="none" xmlns="http://www.w3.org/2000/svg">
<path d="M523.467 232.622L480.8 104.622C480.757 104.473 480.651 104.366 480.587 104.238C480.459 103.897 480.224 103.577 480.054 103.257C479.606 102.404 479.115 101.593 478.475 100.868C478.368 100.74 478.326 100.569 478.198 100.441C477.963 100.206 477.665 100.142 477.43 99.9293C477.025 99.5883 476.726 99.1823 476.278 98.9053L337.611 13.5713C335.712 12.3983 333.558 11.9073 331.254 12.0143L182.517 22.6383C182.453 22.6383 182.41 22.6383 182.346 22.6593L181.919 22.6803C181.748 22.6803 181.62 22.8293 181.45 22.8513C180.383 22.9793 179.338 23.1073 178.314 23.5553C177.823 23.7683 177.482 24.1743 177.034 24.4513C176.842 24.5793 176.586 24.5583 176.415 24.6863L59.083 110.019C57.099 111.448 55.67 113.518 55.051 115.886L12.384 275.886C12.32 276.121 12.469 276.355 12.405 276.59C12.256 277.294 12 277.912 12 278.638C12 279.726 12.32 280.707 12.619 281.71C12.662 281.881 12.576 282.051 12.64 282.222L12.832 282.755C12.832 282.776 12.832 282.798 12.853 282.798L65.973 431.555C66.784 433.859 68.341 435.779 70.41 437.059L209.077 522.392C209.29 522.52 209.589 522.477 209.802 522.605C210.186 522.818 210.485 523.138 210.911 523.288C212.148 523.757 213.407 523.971 214.666 523.971C215.135 523.971 215.605 523.95 216.095 523.886L376.095 502.553C377.844 502.34 379.53 501.657 380.959 500.612L498.292 415.279C498.953 414.81 499.359 414.127 499.892 413.53C500.127 413.253 500.468 413.146 500.681 412.847C500.766 412.74 500.766 412.591 500.852 412.463C501.257 411.844 501.492 411.14 501.769 410.436C502.004 409.796 502.302 409.177 502.43 408.473C502.451 408.302 502.579 408.153 502.601 407.982L523.934 237.315C524.128 235.736 523.979 234.136 523.467 232.622ZM329.333 33.5393L453.578 109.976L403.317 160.237L232.885 120.13L198.56 42.8833L329.333 33.5393ZM406.24 346.52L249.952 414.893L142.411 278.019L230.219 141.443L396.47 180.547L406.24 346.52ZM74.677 125.059L178.272 49.7103L213.237 128.387L123.509 267.95H36.555L74.677 125.059ZM209.227 497.432L84.789 420.867L37.813 289.304H124.149L234.57 429.848L209.227 497.432ZM370.592 481.752L230.901 500.376L255.072 435.928L416.053 365.485L473.76 406.701L370.592 481.752ZM483.659 387.587L427.68 347.608L417.589 176.131L466.016 127.704L502.475 237.037L483.659 387.587Z" fill="#111111" stroke="#111111" stroke-width="22.5"/>
</svg>
