<svg width="512" height="512" viewBox="0 0 512 512" fill="none" xmlns="http://www.w3.org/2000/svg">
<path d="M256 46.9504C373.095 46.9504 465.05 138.957 465.05 256C465.05 373.043 373.095 465.05 256 465.05C138.906 465.05 46.9505 373.094 46.9505 256C46.9505 138.906 138.906 46.9504 256 46.9504ZM256 5.12C118.016 5.12 5.12012 118.016 5.12012 256C5.12012 393.984 118.016 506.88 256 506.88C393.984 506.88 506.88 393.984 506.88 256C506.88 118.016 393.984 5.12 256 5.12Z" fill="#111111"/>
<path d="M276.89 193.28H431.616C427.418 184.934 423.27 172.39 419.072 163.994H276.89V193.28Z" fill="#111111"/>
<path d="M276.89 318.72V348.006H419.072C423.27 339.661 427.418 327.117 431.616 318.72H276.89Z" fill="#111111"/>
<path d="M276.89 393.984V423.27H339.61C356.352 414.925 368.896 406.528 381.44 393.984H276.89Z" fill="#111111"/>
<path d="M444.16 243.456H276.89V272.742H444.16C444.16 268.544 444.16 264.397 444.16 256C444.16 247.603 444.16 247.654 444.16 243.456Z" fill="#111111"/>
<path d="M276.89 118.016H381.44C368.896 105.472 356.352 97.1264 339.61 88.7296H276.89V118.016Z" fill="#111111"/>
</svg>
