<svg width="512" height="512" viewBox="0 0 512 512" fill="none" xmlns="http://www.w3.org/2000/svg">
<path d="M483.979 374.735L512 350.354L487.42 308.175L451.779 320.122C443.914 313.539 435.065 308.419 425.233 304.762L417.859 268.19H368.699L361.325 304.518C351.493 308.175 342.644 313.295 334.779 319.878L299.138 307.931L274.558 350.11L302.579 374.491C300.613 386.682 300.613 393.021 302.579 405.211L274.558 429.592L299.138 471.771L334.779 459.825C342.644 466.408 351.493 471.528 361.325 475.185L368.699 512H417.859L425.233 475.672C435.065 472.015 443.914 466.895 451.779 460.312L487.42 472.259L512 430.08L483.979 405.699C485.945 393.265 485.945 386.926 483.979 374.735ZM393.279 438.857C366.241 438.857 344.119 416.914 344.119 390.095C344.119 363.276 366.241 341.333 393.279 341.333C420.317 341.333 442.439 363.276 442.439 390.095C442.439 416.914 420.317 438.857 393.279 438.857ZM196.639 97.5238V229.425L254.648 286.964L280.211 243.322L245.799 209.432V97.5238H196.639V97.5238ZM442.439 219.429C442.439 161.233 419.132 105.42 377.645 64.2691C336.158 23.1183 279.89 0 221.219 0C151.658 0 89.7168 32.1829 49.1599 81.92V24.381H0V170.667H147.48V121.905H80.1306C95.984 99.3571 117.087 80.9352 141.648 68.2021C166.21 55.4689 193.506 48.8003 221.219 48.7619C316.098 48.7619 393.279 125.318 393.279 219.429H442.439ZM193.198 387.901C119.704 375.954 61.6956 317.196 51.1263 243.81H1.47479C13.7648 353.524 107.414 438.857 221.219 438.857H222.94L193.198 387.901Z" fill="#111"/>
</svg>
