<svg width="493" height="536" viewBox="0 0 493 536" fill="none" xmlns="http://www.w3.org/2000/svg">
<path d="M481.077 149.707C480.992 148.704 480.928 147.702 480.522 146.72C480.415 146.464 480.202 146.293 480.074 146.037C479.797 145.504 479.477 145.056 479.114 144.565C478.389 143.562 477.578 142.73 476.597 142.048C476.341 141.877 476.234 141.557 475.957 141.408L251.957 13.4078C248.672 11.5308 244.661 11.5308 241.376 13.4078L17.376 141.408C17.12 141.579 17.013 141.877 16.757 142.048C15.733 142.752 14.858 143.605 14.112 144.672C13.813 145.099 13.515 145.483 13.28 145.952C13.131 146.229 12.896 146.421 12.768 146.72C12.299 147.893 12.149 149.109 12.107 150.304C12.107 150.432 12 150.56 12 150.688V150.859C12 150.88 12 150.88 12 150.902V385.206C12 385.227 12 385.27 12 385.291V385.355C12 385.568 12.149 385.76 12.171 385.974C12.256 387.467 12.491 388.961 13.216 390.326C13.259 390.411 13.344 390.433 13.387 390.518C13.664 391.009 14.155 391.329 14.518 391.777C15.307 392.758 16.075 393.718 17.121 394.38C17.228 394.444 17.27 394.572 17.356 394.615L241.356 522.615C243.02 523.554 244.833 524.023 246.668 524.023C248.503 524.023 250.316 523.554 251.959 522.615L475.959 394.615C476.066 394.551 476.108 394.423 476.215 394.359C477.196 393.762 477.879 392.866 478.626 391.97C479.053 391.458 479.629 391.074 479.949 390.498C479.992 390.434 480.056 390.391 480.098 390.327C480.674 389.218 480.781 388.002 480.951 386.807C481.015 386.316 481.335 385.868 481.335 385.356V150.688C481.333 150.347 481.099 150.048 481.077 149.707ZM446.176 148.981L367.925 180.277L281.867 55.0927L446.176 148.981ZM246.667 41.5037L343.734 182.688H149.6L246.667 41.5037ZM211.403 55.1147L125.366 180.278L47.136 148.981L211.403 55.1147ZM33.333 166.432L114.101 198.752L33.333 344.16V166.432ZM129.291 215.392L227.616 394.165L39.904 376.288L129.291 215.392ZM236 494.965L70.88 400.629L236 416.202V494.965ZM246.667 384.544L147.382 204.021H345.953L246.667 384.544ZM257.333 494.965V416.394L422.368 400.671L257.333 494.965ZM265.653 394.357L364.064 215.456L453.429 376.309L265.653 394.357ZM460 344.203L379.189 198.752L460 166.432V344.203V344.203Z" fill="#111111" stroke="#111111" stroke-width="22.5"/>
</svg>
