<svg width="512" height="512" viewBox="0 0 512 512" fill="none" xmlns="http://www.w3.org/2000/svg">
<path d="M37.9372 222.636H36.7294L242.228 15.426L242.236 15.4178C243.053 14.5928 244.648 13.4927 247.21 12.6092C249.733 11.7396 252.756 11.2353 255.947 11.2505L256.005 11.2508L256.063 11.2504C259.286 11.2325 262.315 11.7694 264.779 12.6734C267.294 13.596 268.687 14.6962 269.284 15.3803L269.52 15.6504L269.772 15.9049L494.275 242.278C499.736 247.797 500.75 252.343 500.75 255.439C500.75 263.021 495.529 271.062 480.266 279.013C465.292 286.814 443.623 292.813 417.991 297.236C366.944 306.047 303.733 308.048 256 308.048C145 308.048 82.5737 298.062 48.2786 285.76C31.1896 279.629 21.8749 273.198 16.9248 267.866C12.2095 262.786 11.25 258.518 11.25 255.439C11.25 251.314 13.1939 246.708 18.0848 241.95L37.9372 222.636ZM263.979 38.3682L255.992 30.3318L248.013 38.3764L94.4126 193.236L70.4228 217.422L104.098 212.279C153.436 204.744 211.396 202.829 256 202.829C322.169 202.829 371.003 206.481 407.948 211.967L441.469 216.944L417.579 192.908L263.979 38.3682ZM39.95 255.439C39.95 262.872 44.7399 267.942 48.527 270.837C52.5426 273.906 57.7592 276.379 63.3923 278.458C74.7865 282.664 90.6324 286.238 109.438 289.165C147.226 295.047 199.033 298.619 256 298.619C312.967 298.619 364.774 295.047 402.562 289.165C421.368 286.238 437.213 282.664 448.608 278.458C454.241 276.379 459.457 273.906 463.473 270.837C467.26 267.942 472.05 262.872 472.05 255.439C472.05 247.989 467.215 242.932 463.45 240.07C459.44 237.02 454.23 234.558 448.601 232.485C437.214 228.29 421.374 224.71 402.568 221.773C364.781 215.872 312.973 212.259 256 212.259C199.027 212.259 147.219 215.872 109.432 221.773C90.6264 224.71 74.7864 228.29 63.399 232.485C57.77 234.558 52.5602 237.02 48.5496 240.07C44.7854 242.932 39.95 247.989 39.95 255.439Z" fill="#111111" stroke="#111111" stroke-width="22.5"/>
<path d="M37.9372 289.364H36.7294L242.228 496.574L242.236 496.582C243.053 497.407 244.648 498.507 247.21 499.391C249.733 500.26 252.756 500.765 255.947 500.75L256.005 500.749L256.063 500.75C259.286 500.768 262.315 500.231 264.779 499.327C267.294 498.404 268.687 497.304 269.284 496.62L269.52 496.35L269.772 496.095L494.275 269.722C499.736 264.203 500.75 259.657 500.75 256.561C500.75 248.979 495.529 240.938 480.266 232.987C465.292 225.186 443.623 219.187 417.991 214.764C366.944 205.953 303.733 203.952 256 203.952C145 203.952 82.5737 213.938 48.2786 226.24C31.1896 232.371 21.8749 238.802 16.9248 244.134C12.2095 249.214 11.25 253.482 11.25 256.561C11.25 260.686 13.1939 265.292 18.0848 270.05L37.9372 289.364ZM263.979 473.632L255.992 481.668L248.013 473.624L94.4126 318.764L70.4228 294.578L104.098 299.721C153.436 307.256 211.396 309.171 256 309.171C322.169 309.171 371.003 305.519 407.948 300.033L441.469 295.056L417.579 319.092L263.979 473.632ZM39.95 256.561C39.95 249.128 44.7399 244.058 48.527 241.163C52.5426 238.094 57.7592 235.621 63.3923 233.542C74.7865 229.336 90.6324 225.762 109.438 222.835C147.226 216.953 199.033 213.381 256 213.381C312.967 213.381 364.774 216.953 402.562 222.835C421.368 225.762 437.213 229.336 448.608 233.542C454.241 235.621 459.457 238.094 463.473 241.163C467.26 244.058 472.05 249.128 472.05 256.561C472.05 264.011 467.215 269.068 463.45 271.93C459.44 274.98 454.23 277.442 448.601 279.515C437.214 283.71 421.374 287.29 402.568 290.227C364.781 296.128 312.973 299.741 256 299.741C199.027 299.741 147.219 296.128 109.432 290.227C90.6264 287.29 74.7864 283.71 63.399 279.515C57.77 277.442 52.5602 274.98 48.5496 271.93C44.7854 269.068 39.95 264.011 39.95 256.561Z" fill="#111111" stroke="#111111" stroke-width="22.5"/>
</svg>
