<svg width="478" height="523" viewBox="0 0 478 523" fill="none" xmlns="http://www.w3.org/2000/svg">
<path d="M230.16 8.35658C228.159 9.57911 225.599 12.254 224.261 14.255C222.26 17.7032 222.036 19.8191 222.036 40.0744C222.036 61.777 222.145 62.336 224.705 66.2282C227.824 70.7944 233.498 73.9082 238.728 73.9082C243.958 73.9082 249.637 70.7944 252.75 66.2282C255.31 62.3307 255.42 61.777 255.42 40.0744C255.42 19.7042 255.195 17.7032 253.085 14.255C248.189 6.35038 237.615 3.56573 230.16 8.35658Z" fill="#111111" stroke="#111111" stroke-width="10"/>
<path d="M77.8972 75.2457C69.8829 79.5872 66.3198 87.2672 68.5454 95.2816C69.5485 99.179 72.4429 102.737 83.2367 113.755C90.692 121.326 98.2623 128.337 100.044 129.225C104.72 131.675 112.844 131.56 117.295 128.891C124.531 124.664 127.201 114.424 123.084 106.41C120.414 101.29 95.5926 76.6929 91.3607 75.136C87.4685 73.5738 80.7916 73.6888 77.8972 75.2457Z" fill="#111111" stroke="#111111" stroke-width="10"/>
<path d="M385.087 75.6898C380.301 78.1401 356.927 101.509 354.367 106.41C350.25 114.314 352.919 124.664 360.046 128.891C364.387 131.341 372.846 131.56 377.407 129.225C379.188 128.332 386.758 121.32 394.214 113.755C405.013 102.737 407.902 99.1738 408.905 95.2816C411.131 87.1575 407.458 79.2529 399.334 75.136C395.886 73.3544 388.984 73.5739 385.087 75.6898Z" fill="#111111" stroke="#111111" stroke-width="10"/>
<path d="M213.797 99.0642C182.523 104.743 151.024 122.992 130.32 147.37C99.1557 184.208 89.1404 229.843 101.272 280.704C106.836 303.744 115.963 321.439 136.887 349.38C152.357 370.079 156.808 376.981 160.596 386.442L163.49 393.903L164.159 440.092C164.828 485.389 164.828 486.392 167.497 492.959C171.06 502.196 181.185 512.326 190.093 515.55C196.216 517.89 198.217 518 238.733 518C279.249 518 281.25 517.89 287.373 515.55C296.276 512.326 306.406 502.196 309.969 492.959C312.529 486.392 312.639 485.169 313.307 440.092C313.976 395.684 314.086 393.678 316.536 386.892C319.54 378.877 326.776 367.415 338.907 351.611C361.947 321.669 371.853 301.523 378.086 272.7C381.315 257.34 381.649 225.951 378.645 211.929C372.631 183.769 359.946 159.95 340.245 139.914C319.765 119.1 290.936 103.965 262.781 98.9545C250.525 96.8385 225.818 96.9482 213.797 99.0642ZM264.772 134.455C300.497 143.582 329.885 170.739 341.457 205.356C345.908 218.6 347.136 228.95 346.358 247.314C345.135 278.703 338.453 295.51 314.081 328.006C305.957 338.805 296.939 351.605 294.16 356.386C288.705 365.403 282.917 378.982 281.584 385.549C279.912 394.117 284.479 393.339 238.733 393.339H197.554L196.885 390.22C192.434 369.964 185.308 356.83 161.604 325.556C146.469 305.635 138.898 291.388 134.447 274.805C131.777 264.675 131.553 261.671 131.443 242.529C131.333 223.72 131.668 220.382 133.893 212.033C145.471 169.741 180.527 138.796 224.935 131.785C234.83 130.228 252.865 131.451 264.772 134.455ZM278.575 453.666C278.8 478.931 278.685 480.269 276.574 482.385C274.463 484.501 273.011 484.61 238.953 484.61C208.792 484.61 203.222 484.386 201.112 482.829C198.661 481.157 198.661 480.713 198.661 454.669C198.661 440.087 198.996 427.846 199.44 427.512C199.884 427.068 217.694 426.843 239.172 426.953L278.241 427.287L278.575 453.666Z" fill="#111111" stroke="#111111" stroke-width="10"/>
<path d="M15.0153 229.953C9.45126 232.738 5 239.3 5 244.535C5 248.986 8.78253 255.888 13.0144 258.892C16.4625 261.342 17.6903 261.452 38.3897 261.786C57.8666 262.011 60.5363 261.896 63.9897 260.004C68.6656 257.444 72.5578 252.1 73.5609 246.87C74.6737 241.081 70.3322 233.401 64.0994 230.063C59.5384 227.613 57.9763 227.503 39.6122 227.503C21.4676 227.503 19.5763 227.728 15.0153 229.953Z" fill="#111111" stroke="#111111" stroke-width="10"/>
<path d="M415.138 229.065C404.119 233.96 400.781 247.319 408.571 255.553C414.469 261.676 416.026 262.011 438.068 262.011C456.098 262.011 458.883 261.786 462.999 259.785C468.01 257.335 472.461 250.882 472.461 245.982C472.461 239.305 466.563 231.181 459.886 228.731C455.21 226.949 419.26 227.169 415.138 229.065Z" fill="#111111" stroke="#111111" stroke-width="10"/>
<path d="M107.839 351.715C105.948 352.603 96.5957 361.286 87.1394 370.858C70.8913 387.221 69.6635 388.663 68.9948 393.453C67.882 401.243 71.2204 408.254 77.5629 411.149C83.0173 413.594 87.6932 413.933 92.0295 411.927C96.5905 409.926 127.979 379.541 130.095 375.089C132.545 369.969 132.321 362.399 129.651 358.058C125.424 351.161 115.075 348.042 107.839 351.715Z" fill="#111111" stroke="#111111" stroke-width="10"/>
<path d="M354.257 352.164C346.352 356.391 343.239 366.521 347.355 375.089C349.691 379.985 380.526 409.926 385.311 411.818C397.667 417.047 410.467 406.922 408.461 393.563C407.792 388.778 406.57 387.33 390.431 370.858C380.86 361.286 371.513 352.603 369.507 351.715C364.607 349.38 359.267 349.599 354.257 352.164Z" fill="#111111" stroke="#111111" stroke-width="10"/>
</svg>
