<svg width="546" height="558" viewBox="0 0 546 558" fill="none" xmlns="http://www.w3.org/2000/svg">
<path d="M245.65 334.628C296.625 334.628 337.949 293.305 337.949 242.33C337.949 191.355 296.625 150.031 245.65 150.031C194.675 150.031 153.352 191.355 153.352 242.33C153.352 293.305 194.675 334.628 245.65 334.628Z" fill="#111111" stroke="#111111" stroke-width="45" stroke-linecap="round" stroke-linejoin="round"/>
<path d="M71.9859 164.561C99.0401 164.561 120.972 142.629 120.972 115.575C120.972 88.521 99.0401 66.5892 71.9859 66.5892C44.9318 66.5892 23 88.521 23 115.575C23 142.629 44.9318 164.561 71.9859 164.561Z" fill="#111111" stroke="#111111" stroke-width="45" stroke-linecap="round" stroke-linejoin="round"/>
<path d="M342.1 120.972C369.154 120.972 391.086 99.0401 391.086 71.9859C391.086 44.9318 369.154 23 342.1 23C315.046 23 293.114 44.9318 293.114 71.9859C293.114 99.0401 315.046 120.972 342.1 120.972Z" fill="#111111" stroke="#111111" stroke-width="45" stroke-linecap="round" stroke-linejoin="round"/>
<path d="M473.559 347.082C500.613 347.082 522.545 325.15 522.545 298.096C522.545 271.042 500.613 249.11 473.559 249.11C446.505 249.11 424.573 271.042 424.573 298.096C424.573 325.15 446.505 347.082 473.559 347.082Z" fill="#111111" stroke="#111111" stroke-width="45" stroke-linecap="round" stroke-linejoin="round"/>
<path d="M435.644 535C462.698 535 484.63 513.068 484.63 486.014C484.63 458.96 462.698 437.028 435.644 437.028C408.59 437.028 386.658 458.96 386.658 486.014C386.658 513.068 408.59 535 435.644 535Z" fill="#111111" stroke="#111111" stroke-width="45" stroke-linecap="round" stroke-linejoin="round"/>
<path d="M113.775 479.372C140.83 479.372 162.761 457.44 162.761 430.386C162.761 403.332 140.83 381.4 113.775 381.4C86.7213 381.4 64.7896 403.332 64.7896 430.386C64.7896 457.44 86.7213 479.372 113.775 479.372Z" fill="#111111" stroke="#111111" stroke-width="45" stroke-linecap="round" stroke-linejoin="round"/>
<path d="M142.006 390.256L192.929 318.023L142.006 390.256ZM78.3516 164.146L107.273 381.815L78.3516 164.146ZM387.35 477.711L161.932 438.689L387.35 477.711ZM463.874 346.113L445.331 437.997L463.874 346.113ZM366.732 114.33L449.067 255.752L366.732 114.33ZM120.834 107.688L293.807 79.7351L120.834 107.688ZM111.839 143.943L172.034 186.563L111.839 143.943ZM318.161 114.606L291.593 162.07L318.161 114.606ZM426.235 285.919L335.735 262.81L426.235 285.919ZM405.893 447.268L303.908 313.871Z" fill="#111111"/>
<path d="M405.893 447.268L303.908 313.871M142.006 390.256L192.929 318.023L142.006 390.256ZM78.3516 164.146L107.273 381.815L78.3516 164.146ZM387.35 477.711L161.932 438.689L387.35 477.711ZM463.874 346.113L445.331 437.997L463.874 346.113ZM366.732 114.33L449.067 255.752L366.732 114.33ZM120.834 107.688L293.807 79.7351L120.834 107.688ZM111.839 143.943L172.034 186.563L111.839 143.943ZM318.161 114.606L291.593 162.07L318.161 114.606ZM426.235 285.919L335.735 262.81L426.235 285.919Z" stroke="#111111" stroke-width="45" stroke-linecap="round" stroke-linejoin="round"/>
</svg>
