<svg width="536" height="536" viewBox="0 0 536 536" fill="none" xmlns="http://www.w3.org/2000/svg">
<path d="M522.35 263.961L272.039 13.6495C270.96 12.5922 269.51 12 268 12C266.49 12 265.039 12.5922 263.961 13.6495L13.6497 263.961C13.6437 264.004 13.6239 264.044 13.5931 264.074C12.5715 265.126 12 266.534 12 268C12 269.466 12.5715 270.874 13.5931 271.925C13.6239 271.956 13.6437 271.996 13.6497 272.039L263.961 522.35C265.039 523.408 266.489 524 268 524C269.51 524 270.961 523.408 272.039 522.35L522.35 272.039C523.408 270.96 524 269.51 524 268C524 266.489 523.408 265.039 522.35 263.961V263.961ZM262.311 504.601L38.1688 280.458L262.311 351.797V504.601ZM262.311 339.907L28.2701 265.44L262.311 31.3989V339.907ZM273.689 504.601V351.797L497.717 280.515L273.689 504.601ZM273.689 339.907V31.3989L507.673 265.44L273.689 339.907Z" fill="#111111" stroke="#111111" stroke-width="22.5"/>
<path d="M224.879 209.422L235.721 205.779C237.19 205.239 238.395 204.153 239.083 202.747C239.771 201.341 239.891 199.724 239.418 198.232C239.22 197.498 238.875 196.811 238.404 196.213C237.933 195.615 237.346 195.119 236.678 194.754C236.011 194.389 235.276 194.164 234.519 194.09C233.761 194.017 232.997 194.098 232.272 194.329L221.429 197.972C219.96 198.512 218.756 199.598 218.068 201.004C217.38 202.41 217.26 204.027 217.733 205.519C217.931 206.253 218.276 206.94 218.747 207.538C219.218 208.136 219.805 208.632 220.473 208.997C221.14 209.362 221.875 209.587 222.632 209.661C223.39 209.734 224.154 209.653 224.879 209.422ZM181.511 223.996L192.353 220.352C193.822 219.812 195.026 218.726 195.714 217.32C196.403 215.914 196.523 214.297 196.049 212.805C195.851 212.071 195.506 211.384 195.035 210.786C194.564 210.188 193.977 209.692 193.31 209.327C192.642 208.963 191.907 208.737 191.15 208.664C190.393 208.591 189.628 208.672 188.903 208.902L178.061 212.545C176.592 213.086 175.388 214.172 174.699 215.577C174.011 216.983 173.891 218.6 174.365 220.092C174.563 220.827 174.908 221.514 175.378 222.111C175.849 222.709 176.436 223.205 177.104 223.57C177.772 223.935 178.506 224.161 179.264 224.234C180.021 224.307 180.785 224.226 181.511 223.996ZM138.142 238.569L148.984 234.926C150.453 234.385 151.657 233.299 152.346 231.893C153.034 230.488 153.154 228.871 152.68 227.379C152.482 226.644 152.137 225.957 151.667 225.359C151.196 224.762 150.609 224.265 149.941 223.901C149.273 223.536 148.539 223.31 147.781 223.237C147.024 223.164 146.259 223.245 145.534 223.475L134.692 227.118C133.223 227.659 132.019 228.745 131.331 230.151C130.642 231.556 130.522 233.173 130.996 234.665C131.194 235.4 131.539 236.087 132.01 236.685C132.48 237.282 133.067 237.779 133.735 238.143C134.403 238.508 135.138 238.734 135.895 238.807C136.652 238.88 137.417 238.799 138.142 238.569V238.569ZM94.7731 253.142L105.615 249.499C107.084 248.958 108.288 247.872 108.977 246.467C109.665 245.061 109.785 243.444 109.312 241.952C109.113 241.217 108.769 240.53 108.298 239.933C107.827 239.335 107.24 238.839 106.572 238.474C105.905 238.109 105.17 237.883 104.412 237.81C103.655 237.737 102.891 237.818 102.166 238.048L91.3234 241.692C89.8544 242.232 88.6503 243.318 87.9618 244.724C87.2734 246.13 87.1535 247.747 87.6271 249.239C87.8253 249.973 88.1701 250.66 88.6409 251.258C89.1117 251.856 89.6986 252.352 90.3664 252.717C91.0341 253.081 91.7688 253.307 92.5262 253.38C93.2836 253.453 94.0479 253.372 94.7731 253.142V253.142ZM51.4045 267.715L62.2467 264.072C63.7157 263.532 64.9197 262.446 65.6082 261.04C66.2967 259.634 66.4165 258.017 65.9429 256.525C65.7447 255.791 65.3999 255.104 64.9291 254.506C64.4584 253.908 63.8714 253.412 63.2036 253.047C62.5359 252.682 61.8012 252.457 61.0438 252.383C60.2864 252.31 59.5221 252.391 58.7969 252.622L47.9547 256.265C46.4857 256.805 45.2816 257.891 44.5932 259.297C43.9047 260.703 43.7848 262.32 44.2585 263.812C44.4566 264.546 44.8015 265.233 45.2722 265.831C45.743 266.429 46.33 266.925 46.9977 267.29C47.6655 267.655 48.4002 267.88 49.1576 267.954C49.915 268.027 50.6793 267.946 51.4045 267.715V267.715Z" fill="#111111" stroke="#111111" stroke-width="22.5"/>
<path d="M314.57 197.972L303.728 194.329C303.003 194.098 302.238 194.017 301.481 194.09C300.724 194.164 299.989 194.389 299.321 194.754C298.653 195.119 298.066 195.615 297.596 196.213C297.125 196.811 296.78 197.498 296.582 198.232C296.108 199.724 296.228 201.341 296.917 202.747C297.605 204.153 298.809 205.239 300.278 205.779L311.12 209.422C311.846 209.653 312.61 209.734 313.367 209.661C314.125 209.587 314.859 209.362 315.527 208.997C316.195 208.632 316.782 208.136 317.253 207.538C317.723 206.94 318.068 206.253 318.266 205.519C318.74 204.027 318.62 202.41 317.932 201.004C317.243 199.598 316.039 198.512 314.57 197.972ZM357.939 212.545L347.097 208.902C346.371 208.672 345.607 208.591 344.85 208.664C344.092 208.737 343.358 208.963 342.69 209.327C342.022 209.692 341.435 210.188 340.964 210.786C340.494 211.384 340.149 212.071 339.951 212.805C339.477 214.297 339.597 215.914 340.285 217.32C340.974 218.726 342.178 219.812 343.647 220.352L354.489 223.996C355.214 224.226 355.979 224.307 356.736 224.234C357.493 224.161 358.228 223.935 358.896 223.57C359.564 223.205 360.15 222.709 360.621 222.111C361.092 221.514 361.437 220.827 361.635 220.092C362.109 218.6 361.989 216.983 361.3 215.577C360.612 214.172 359.408 213.086 357.939 212.545V212.545ZM401.308 227.118L390.465 223.475C389.74 223.245 388.976 223.164 388.218 223.237C387.461 223.31 386.726 223.536 386.059 223.901C385.391 224.265 384.804 224.762 384.333 225.359C383.862 225.957 383.517 226.644 383.319 227.379C382.846 228.871 382.966 230.488 383.654 231.893C384.342 233.299 385.547 234.385 387.016 234.926L397.858 238.569C398.583 238.799 399.347 238.88 400.105 238.807C400.862 238.734 401.597 238.508 402.264 238.143C402.932 237.779 403.519 237.282 403.99 236.685C404.461 236.087 404.806 235.4 405.004 234.665C405.477 233.173 405.358 231.556 404.669 230.151C403.981 228.745 402.777 227.659 401.308 227.118H401.308ZM444.676 241.692L433.834 238.048C433.109 237.818 432.345 237.737 431.587 237.81C430.83 237.883 430.095 238.109 429.427 238.474C428.76 238.839 428.173 239.335 427.702 239.933C427.231 240.53 426.886 241.217 426.688 241.952C426.214 243.444 426.334 245.061 427.023 246.467C427.711 247.872 428.915 248.958 430.384 249.499L441.227 253.142C441.952 253.372 442.716 253.453 443.473 253.38C444.231 253.307 444.966 253.081 445.633 252.717C446.301 252.352 446.888 251.856 447.359 251.258C447.83 250.66 448.174 249.973 448.373 249.239C448.846 247.747 448.726 246.13 448.038 244.724C447.349 243.318 446.145 242.232 444.676 241.692ZM488.045 256.265L477.203 252.622C476.478 252.391 475.713 252.31 474.956 252.383C474.198 252.457 473.464 252.682 472.796 253.047C472.128 253.412 471.541 253.908 471.071 254.506C470.6 255.104 470.255 255.791 470.057 256.525C469.583 258.017 469.703 259.634 470.391 261.04C471.08 262.446 472.284 263.532 473.753 264.072L484.595 267.715C485.32 267.946 486.085 268.027 486.842 267.954C487.599 267.88 488.334 267.655 489.002 267.29C489.67 266.925 490.257 266.429 490.727 265.831C491.198 265.233 491.543 264.546 491.741 263.812C492.215 262.32 492.095 260.703 491.406 259.297C490.718 257.891 489.514 256.805 488.045 256.265V256.265Z" fill="#111111" stroke="#111111" stroke-width="22.5"/>
</svg>
