<svg width="536" height="536" viewBox="0 0 536 536" fill="none" xmlns="http://www.w3.org/2000/svg">
<path d="M17.6983 13.5691C11.7754 16.9223 12.1097 1.72341 12 267.595C12 456.908 12.3343 515.473 13.3423 517.709C16.3612 524.306 -0.963497 523.856 267.927 523.856C536.812 523.856 519.493 524.306 522.512 517.709C523.52 515.473 523.854 456.913 523.854 267.82C523.854 -0.846294 524.303 16.3635 517.707 13.3498C513.23 11.2241 21.5006 11.4486 17.6983 13.5691ZM500.377 267.929V500.384H267.922H35.4669V267.929V35.4744H267.922H500.377V267.929Z" fill="#111111" stroke="black" stroke-width="22.5"/>
<path d="M108.558 251.169C104.98 252.621 101.407 257.765 101.407 261.453C101.407 265.923 104.092 270.619 107.555 272.181C109.79 273.189 148.237 273.523 268.037 273.523C439.361 273.523 430.195 273.857 433.104 267.375C435.34 262.461 434.671 258.209 431.203 254.297L427.965 250.61L269.379 250.385C182.207 250.27 109.785 250.61 108.558 251.169Z" fill="#111111" stroke="black" stroke-width="22.5"/>
</svg>
