<svg width="474" height="512" viewBox="0 0 474 512" fill="none" xmlns="http://www.w3.org/2000/svg">
<path d="M473.316 0H179.23H163.243H157.914V117.185H18.9947L21.4502 115.409L15.86 107.781L2.95551 117.185H0.5V511.948H392.807L392.964 512V511.948H394.636V507.768L399.912 494.446L394.636 492.356V314.775H461.195L456.964 325.433L465.741 328.934L471.383 314.775H473.316V0ZM355.191 472.555L46.6322 471.928L56.5065 459.442L48.9833 453.695L39.9971 465.032V156.526H355.138L355.191 472.555ZM394.688 275.383V123.768L401.793 110.446L393.382 106.109L387.478 117.133H197.411V39.3927H427.707L420.758 52.8718L429.169 57.2082L433.819 48.222V275.435H394.688V275.383Z" fill="#111111"/>
<path d="M207.912 293.512H226.825V302.968H207.912V293.512Z" fill="#111111"/>
<path d="M286.697 293.512H305.61V302.968H286.697V293.512Z" fill="#111111"/>
<path d="M326.09 293.512H345.003V302.968H326.09V293.512Z" fill="#111111"/>
<path d="M247.305 293.512H266.165V302.968H247.252V293.512H247.305Z" fill="#111111"/>
<path d="M168.206 165.721H177.662V184.633H168.206V165.721Z" fill="#111111"/>
<path d="M168.206 205.166H177.662V224.079H168.206V205.166Z" fill="#111111"/>
<path d="M168.206 244.559H177.662V263.471H168.206V244.559Z" fill="#111111"/>
<path d="M72.9114 422.4L80.4346 428.147L68.9407 443.141L61.4175 437.394L72.9114 422.4Z" fill="#111111"/>
<path d="M120.768 359.811L128.291 365.557L116.797 380.552L109.274 374.805L120.768 359.811Z" fill="#111111"/>
<path d="M144.644 328.516L152.167 334.263L140.673 349.257L133.15 343.51L144.644 328.516Z" fill="#111111"/>
<path d="M164.601 317.963L176.043 302.968H187.38V293.512H177.61V283.951H168.154V297.692L157.078 312.216L164.601 317.963Z" fill="#111111"/>
<path d="M96.7873 391.105L104.311 396.852L92.8167 411.847L85.2935 406.1L96.7873 391.105Z" fill="#111111"/>
<path d="M47.6774 84.48L53.2676 92.1077L38.0121 103.288L32.4219 95.6604L47.6774 84.48Z" fill="#111111"/>
<path d="M111.259 37.9819L116.849 45.6097L101.594 56.7379L96.0034 49.1101L111.259 37.9819Z" fill="#111111"/>
<path d="M143.076 14.7334L148.667 22.3612L133.411 33.5416L127.821 25.9138L143.076 14.7334Z" fill="#111111"/>
<path d="M79.4943 61.231L85.0845 68.8587L69.829 80.0391L64.2388 72.4114L79.4943 61.231Z" fill="#111111"/>
<path d="M407.488 475.429L398.711 471.928L405.712 454.374L414.489 457.874L407.488 475.429Z" fill="#111111"/>
<path d="M436.692 402.181L427.915 398.681L434.916 381.126L443.693 384.627L436.692 402.181Z" fill="#111111"/>
<path d="M451.165 365.558L442.388 362.057L449.389 344.503L458.166 348.003L451.165 365.558Z" fill="#111111"/>
<path d="M422.064 438.752L413.287 435.252L420.288 417.698L429.065 421.198L422.064 438.752Z" fill="#111111"/>
<path d="M411.145 92.2124L402.733 87.8761L411.354 71.0532L419.765 75.3896L411.145 92.2124Z" fill="#111111"/>
</svg>
