<svg width="528" height="535" viewBox="0 0 528 535" fill="none" xmlns="http://www.w3.org/2000/svg">
<path d="M332.754 7.67233H195.193C186.782 7.67233 179.886 14.5164 179.886 22.9801C179.886 31.4438 186.73 38.2878 195.193 38.2878H332.754C341.166 38.2878 348.062 31.4438 348.062 22.9801C348.062 14.5164 341.166 7.67233 332.754 7.67233ZM317.342 99.4144V160.593C317.342 173.707 325.649 184.051 338.762 193.925C345.345 198.889 351.824 202.703 356.473 204.949L354.645 203.904C397.956 233.631 424.444 282.689 424.444 336.24C424.444 424.9 352.555 496.685 264 496.685C175.34 496.685 103.556 424.796 103.556 336.24C103.556 282.689 129.992 233.631 173.355 203.8L171.527 204.845C176.124 202.546 182.55 198.784 189.238 193.821C202.456 183.947 210.658 173.654 210.658 160.489C210.658 154.951 210.658 145.129 210.658 132.329C210.658 128.149 210.658 128.149 210.658 124.074C210.658 114.252 210.658 114.252 210.658 106.624C210.658 100.668 210.658 100.668 210.658 99.2576C210.658 90.8462 217.502 84.0544 225.966 84.0544H302.296C310.707 84.0544 317.603 90.8984 317.603 99.3621H348.167C348.167 74.0233 327.634 53.4911 302.296 53.4911H225.861C200.522 53.4911 179.99 74.0233 179.99 99.3621C179.99 100.825 179.99 100.825 179.99 106.833C179.99 114.461 179.99 114.461 179.99 124.283C179.99 128.358 179.99 128.358 179.99 132.538C179.99 145.338 179.99 155.16 179.99 160.645C179.99 160.959 176.803 165.034 170.795 169.527C167.974 171.669 164.839 173.654 161.705 175.483C159.876 176.528 158.413 177.311 157.786 177.625L155.958 178.67C104.34 214.092 72.9404 272.554 72.9404 336.293C72.9404 441.827 158.465 527.3 263.948 527.3C369.43 527.3 455.007 441.775 455.007 336.293C455.007 272.554 423.504 214.144 371.99 178.722L370.162 177.677C369.482 177.364 368.072 176.58 366.243 175.535C363.109 173.707 360.026 171.669 357.153 169.579C351.144 165.086 347.958 161.011 347.958 160.698V99.4666H317.394V99.4144H317.342ZM317.499 114.67H210.501V145.233H317.499V114.67ZM474.651 474.115C504.013 431.744 520 381.38 520 328.613C520 280.547 506.73 234.415 482.018 194.343C477.577 187.134 468.173 184.939 460.963 189.38C453.753 193.821 451.559 203.225 456 210.435C477.734 245.648 489.437 286.294 489.437 328.613C489.437 375.058 475.383 419.362 449.522 456.717C444.663 463.666 446.439 473.174 453.388 477.929C460.284 482.84 469.845 481.063 474.651 474.115ZM43.7878 197.896C20.4866 237.08 8.00002 281.958 8.00002 328.56C8.00002 380.649 23.6212 430.386 52.3037 472.547C57.058 479.548 66.5666 481.325 73.5151 476.623C80.5159 471.868 82.2923 462.36 77.5902 455.411C52.3037 418.317 38.5633 374.536 38.5633 328.665C38.5633 287.548 49.5347 248.103 70.1192 213.622C74.4555 206.36 72.1045 196.956 64.8425 192.671C57.5804 188.283 48.1241 190.634 43.7878 197.896Z" fill="#111111" stroke="#111111" stroke-width="15"/>
</svg>
