<svg width="512" height="448" viewBox="0 0 512 448" fill="none" xmlns="http://www.w3.org/2000/svg">
<path d="M170.667 106.667H430.613L354.091 30.1653L384 0L512 128L384 256L354.091 225.813L430.549 149.333H170.667C136.719 149.333 104.162 162.819 80.157 186.824C56.1523 210.828 42.6667 243.386 42.6667 277.333C42.6667 311.281 56.1523 343.838 80.157 367.843C104.162 391.848 136.719 405.333 170.667 405.333H341.333V448H170.667C125.403 448 81.9933 430.019 49.9871 398.013C17.9809 366.007 -1.52588e-05 322.597 -1.52588e-05 277.333C-1.52588e-05 232.07 17.9809 188.66 49.9871 156.654C81.9933 124.648 125.403 106.667 170.667 106.667Z" fill="#111111"/>
</svg>
