<svg width="536" height="536" viewBox="0 0 536 536" fill="none" xmlns="http://www.w3.org/2000/svg">
<path d="M375.337 118.789L343.52 100.503L268 231.428C260.767 231.428 253.696 233.573 247.682 237.592C241.668 241.61 236.98 247.322 234.212 254.005C231.444 260.687 230.72 268.04 232.131 275.135C233.542 282.229 237.025 288.745 242.14 293.86C247.255 298.974 253.771 302.457 260.865 303.869C267.959 305.28 275.313 304.555 281.995 301.787C288.678 299.019 294.389 294.332 298.408 288.318C302.427 282.304 304.571 275.233 304.571 268C304.56 261.577 302.857 255.27 299.634 249.714L375.337 118.789Z" fill="#111111" stroke="#111111" stroke-width="22.5"/>
<path d="M268 12C217.368 12 167.873 27.0141 125.774 55.1438C83.6751 83.2734 50.863 123.255 31.487 170.033C12.1109 216.811 7.04127 268.284 16.9191 317.943C26.7969 367.602 51.1785 413.217 86.9808 449.019C122.783 484.821 168.398 509.203 218.057 519.081C267.716 528.959 319.189 523.889 365.967 504.513C412.745 485.137 452.727 452.325 480.856 410.226C508.986 368.127 524 318.632 524 268C524 200.105 497.029 134.99 449.019 86.9806C401.01 38.9713 335.895 12 268 12V12ZM268 48.5714C312.169 48.6222 355.295 62.0016 391.737 86.9595C428.179 111.917 456.24 147.292 472.251 188.457C450.504 177.582 427.945 168.411 404.777 161.029L386.491 193.394C421.231 203.585 454.489 218.278 485.417 237.097C488.587 257.577 488.587 278.423 485.417 298.903C419.842 338.578 344.643 359.513 268 359.429C191.481 359.446 116.417 338.514 50.9487 298.903C47.7792 278.423 47.7792 257.577 50.9487 237.097C111.034 200.471 179.413 179.649 249.714 176.571V140C185.06 142.508 121.674 158.713 63.7487 187.543C79.905 146.549 108.029 111.369 144.459 86.5819C180.889 61.7952 223.937 48.5502 268 48.5714V48.5714ZM268 487.428C223.831 487.378 180.705 473.998 144.263 449.04C107.822 424.082 79.76 388.708 63.7487 347.543C127.124 379.397 197.07 395.991 268 396C338.93 395.991 408.876 379.397 472.251 347.543C456.24 388.708 428.179 424.082 391.737 449.04C355.295 473.998 312.169 487.378 268 487.428Z" fill="#111111" stroke="#111111" stroke-width="22.5"/>
</svg>
