<svg width="513" height="512" viewBox="0 0 513 512" fill="none" xmlns="http://www.w3.org/2000/svg">
<path d="M64.1381 0.024372C52.0202 -0.30674 39.7608 2.72098 28.8064 10.0239L28.1398 10.6905H27.4731C0.761388 31.4663 -9.33382 70.1413 10.1406 99.353V100.02L36.1394 136.018L48.1388 153.35L65.4713 141.351L136.135 92.02L153.467 80.0206L141.468 62.6881L118.135 28.6897L117.469 28.023V27.3564C107.081 14.0005 91.9896 4.81602 76.1375 1.35764C72.1745 0.493047 68.1773 0.134743 64.1381 0.024372ZM60.1382 42.689C62.7122 42.2375 65.3978 42.0183 68.1379 42.689C73.3458 43.9638 78.3998 47.3504 82.8038 52.6885C83.0341 52.9676 83.2447 53.0649 83.4705 53.3552L94.1366 69.3544L58.805 94.0199L45.4723 75.3541C39.5001 66.3958 41.8499 54.3937 52.8053 45.3555C55.1019 43.8245 57.5643 43.1405 60.1382 42.689ZM183.466 108.686L147.467 132.018L393.456 368.007C370.831 364.793 346.189 362.674 320.126 362.674C271.198 362.674 226.63 368.767 192.799 379.34C180.112 383.304 169.136 387.746 159.467 393.339L94.1366 168.683L57.4717 192.015L128.802 441.337C130.329 455.963 139.479 467.463 150.134 475.335C161.757 483.923 175.883 490.048 192.799 495.334C226.63 505.907 271.198 512 320.126 512C369.053 512 413.622 505.907 447.453 495.334C464.369 490.048 478.495 483.923 490.118 475.335C501.741 466.747 512.117 453.923 512.117 437.337C512.117 420.75 501.741 407.926 490.118 399.339C487.212 397.192 484.008 395.203 480.785 393.339L183.466 108.686ZM320.126 405.338C365.451 405.338 406.186 411.275 434.12 420.004C448.088 424.369 459.137 429.83 464.786 434.004C467.178 435.771 468.194 436.68 468.785 437.337C468.194 437.994 467.178 438.903 464.786 440.67C459.137 444.843 448.088 450.305 434.12 454.669C406.186 463.399 365.451 469.335 320.126 469.335C274.801 469.335 234.066 463.399 206.131 454.669C192.164 450.305 181.114 444.843 175.466 440.67C173.074 438.903 172.058 437.994 171.466 437.337C172.058 436.68 173.074 435.771 175.466 434.004C181.114 429.83 192.164 424.369 206.131 420.004C234.066 411.275 274.801 405.338 320.126 405.338Z" fill="black"/>
</svg>
