<svg width="536" height="535" viewBox="0 0 536 535" fill="none" xmlns="http://www.w3.org/2000/svg">
<path d="M523.872 405.685C523.829 404.96 523.637 404.298 523.445 403.594C523.232 402.847 523.018 402.143 522.656 401.461C522.507 401.184 522.507 400.864 522.336 400.608L277.003 16.608C273.078 10.464 262.966 10.464 259.04 16.608L13.707 400.608C13.558 400.821 13.558 401.099 13.451 401.312C13.024 402.101 12.747 402.933 12.512 403.829C12.363 404.405 12.213 404.938 12.171 405.514C12.149 405.835 12 406.069 12 406.368C12 407.029 12.256 407.584 12.384 408.224C12.448 408.629 12.363 409.056 12.469 409.461C12.512 409.632 12.661 409.738 12.704 409.888C13.045 410.848 13.557 411.659 14.133 412.448C14.41 412.832 14.602 413.259 14.922 413.6C15.882 414.624 16.991 415.435 18.293 416.032C18.336 416.053 18.378 416.096 18.421 416.117H18.442C18.485 416.138 18.527 416.16 18.591 416.181L263.754 522.784C265.098 523.381 266.549 523.68 267.999 523.68C269.449 523.68 270.9 523.381 272.287 522.784L517.62 416.117C517.876 416.01 518.025 415.776 518.26 415.648C519.284 415.093 520.244 414.475 521.033 413.621C521.438 413.194 521.673 412.661 522.014 412.17C522.483 411.466 522.953 410.783 523.251 409.994C523.336 409.802 523.507 409.674 523.571 409.461C523.72 408.949 523.614 408.416 523.699 407.882C523.763 407.37 523.998 406.901 523.998 406.367C524 406.133 523.872 405.92 523.872 405.685ZM268 501.408L73.952 417.035H462.069L268 501.408ZM42.144 395.701L268 42.187L493.856 395.702H42.144V395.701Z" fill="#111111" stroke="#111111" stroke-width="22.5"/>
</svg>
