<svg width="390" height="513" viewBox="0 0 390 513" fill="none" xmlns="http://www.w3.org/2000/svg">
<path d="M388.97 256.946C389.197 164.147 351.996 82.8556 295.858 37.7186C294.362 37.915 291.373 36.9077 289.876 37.304C252.764 42.4136 218.901 64.5311 193.688 98.0697C193.087 98.8683 194.877 101.073 194.276 102.071C198.156 105.881 244.714 153.394 244.463 256.594C244.212 359.194 198.021 406.881 193.523 411.07C194.119 411.872 192.918 413.869 193.215 414.67C218.563 448.931 252.316 471.614 289.403 476.504C290.6 476.707 292.996 475.513 294.192 475.716C351.148 430.855 388.744 349.746 388.97 256.946Z" fill="#3F3F3F"/>
<path d="M294.79 475.717C212.235 466.916 147.543 371.958 147.825 256.358C148.106 140.759 213.261 46.1171 295.858 37.7184C266.595 14.247 232.221 0.563148 195.421 0.473434C88.3118 0.212316 0.968727 114.6 0.624014 255.999C0.279302 397.399 87.0636 512.211 194.173 512.472C230.973 512.562 265.413 499.046 294.79 475.717" fill="#111111"/>
</svg>
