<svg width="512" height="448" viewBox="0 0 512 448" fill="none" xmlns="http://www.w3.org/2000/svg">
<path d="M341.333 106.667H81.3867L157.909 30.1653L128 0L0 128L128 256L157.909 225.813L81.4507 149.333H341.333C375.281 149.333 407.838 162.819 431.843 186.824C455.848 210.828 469.333 243.386 469.333 277.333C469.333 311.281 455.848 343.838 431.843 367.843C407.838 391.848 375.281 405.333 341.333 405.333H170.667V448H341.333C386.597 448 430.007 430.019 462.013 398.013C494.019 366.007 512 322.597 512 277.333C512 232.07 494.019 188.66 462.013 156.654C430.007 124.648 386.597 106.667 341.333 106.667Z" fill="#111111"/>
</svg>
